<svg width="74" height="40" viewBox="0 0 74 40" fill="none" xmlns="http://www.w3.org/2000/svg">
<rect width="58" height="23" fill="#FEBC43"/>
<path d="M8.88 34V33.6L9.8 33.24C10.2533 33.0533 10.56 32.8133 10.72 32.52C10.9067 32.2 11 31.7733 11 31.24V10.36C11 9.82667 10.92 9.41333 10.76 9.12C10.6267 8.8 10.3067 8.54667 9.8 8.36L8.88 8V7.6H28.04L28.28 13.76H27.88L26.16 10C25.92 9.52 25.6667 9.13333 25.4 8.84C25.1333 8.54667 24.7333 8.4 24.2 8.4H17V19.96H21.28C21.8133 19.96 22.2133 19.8267 22.48 19.56C22.7733 19.2667 23.0267 18.88 23.24 18.4L24.04 16.8H24.44V24H24.04L23.24 22.32C23 21.84 22.7467 21.4667 22.48 21.2C22.2133 20.9067 21.8133 20.76 21.28 20.76H17V33.2H25.08C25.6133 33.2 26.0267 33.0667 26.32 32.8C26.6133 32.5067 26.8533 32.1067 27.04 31.6L28.68 27.84H29.08L28.84 34H8.88ZM34.3131 34.72C33.0065 34.72 31.9931 34.4667 31.2731 33.96C30.5798 33.4533 30.2331 32.7733 30.2331 31.92C30.2331 31.1733 30.4865 30.6 30.9931 30.2C31.5265 29.8 32.1398 29.6 32.8331 29.6C33.5265 29.6 34.1398 29.76 34.6731 30.08C35.2065 30.3733 35.6998 30.8933 36.1531 31.64L36.8731 32.88C37.0065 33.0667 37.1665 33.16 37.3531 33.16C37.5665 33.16 37.7131 33.04 37.7931 32.8C37.9531 32.2667 38.0598 31.4933 38.1131 30.48C38.1931 29.44 38.2331 28.1867 38.2331 26.72C38.2331 25.04 38.1931 22.88 38.1131 20.24C38.0331 17.6 37.9531 14.3467 37.8731 10.48C37.8731 9.33333 37.4465 8.61333 36.5931 8.32L35.6731 8V7.6H46.1531V8L45.2731 8.32C44.7931 8.50667 44.4598 8.76 44.2731 9.08C44.1131 9.37333 44.0331 9.8 44.0331 10.36V18.28C44.0331 20.8933 43.9131 23.0533 43.6731 24.76C43.4331 26.4667 43.0465 27.9467 42.5131 29.2C41.8465 30.9867 40.7531 32.36 39.2331 33.32C37.7398 34.2533 36.0998 34.72 34.3131 34.72ZM59.7984 34.72C58.1718 34.72 56.5984 34.4267 55.0784 33.84C53.5851 33.2533 52.2384 32.3867 51.0384 31.24C49.8651 30.0667 48.9318 28.6133 48.2384 26.88C47.5451 25.1467 47.1984 23.12 47.1984 20.8C47.1984 18.5067 47.5451 16.4933 48.2384 14.76C48.9318 13.0267 49.8784 11.5867 51.0784 10.44C52.2784 9.26667 53.6251 8.38667 55.1184 7.8C56.6384 7.18667 58.1984 6.88 59.7984 6.88C61.4251 6.88 62.9851 7.17333 64.4784 7.76C65.9984 8.32 67.3451 9.18667 68.5184 10.36C69.7184 11.5067 70.6651 12.96 71.3584 14.72C72.0518 16.4533 72.3984 18.48 72.3984 20.8C72.3984 23.0667 72.0518 25.08 71.3584 26.84C70.6651 28.5733 69.7184 30.0267 68.5184 31.2C67.3451 32.3467 65.9984 33.2267 64.4784 33.84C62.9851 34.4267 61.4251 34.72 59.7984 34.72ZM59.7984 33.88C61.2651 33.88 62.4518 33.4933 63.3584 32.72C64.2651 31.92 64.9184 30.5733 65.3184 28.68C65.7451 26.76 65.9584 24.1333 65.9584 20.8C65.9584 17.44 65.7451 14.8133 65.3184 12.92C64.9184 11 64.2651 9.65333 63.3584 8.88C62.4518 8.08 61.2651 7.68 59.7984 7.68C58.3584 7.68 57.1851 8.08 56.2784 8.88C55.3718 9.65333 54.7051 11 54.2784 12.92C53.8784 14.8133 53.6784 17.44 53.6784 20.8C53.6784 24.1333 53.8784 26.76 54.2784 28.68C54.7051 30.5733 55.3718 31.92 56.2784 32.72C57.1851 33.4933 58.3584 33.88 59.7984 33.88Z" fill="#0B393C"/>
</svg>
